<mxfile host="app.diagrams.net" modified="2024-03-13T20:52:53.393Z" agent="Mozilla/5.0 (Windows NT 10.0; Win64; x64) AppleWebKit/537.36 (KHTML, like Gecko) Chrome/122.0.0.0 Safari/537.36" etag="NaBEHehffdGUq-yM1QqN" version="23.1.6" type="github">
  <diagram name="Página-1" id="brPBzLyYafh6lxW2ac8o">
    <mxGraphModel dx="1050" dy="530" grid="1" gridSize="10" guides="1" tooltips="1" connect="1" arrows="1" fold="1" page="1" pageScale="1" pageWidth="827" pageHeight="1169" math="0" shadow="0">
      <root>
        <mxCell id="0" />
        <mxCell id="1" parent="0" />
        <mxCell id="I_z2C57ImOtiOZ5cPh4z-8" value="" style="shape=cylinder3;whiteSpace=wrap;html=1;boundedLbl=1;backgroundOutline=1;size=15;" vertex="1" parent="1">
          <mxGeometry x="180" y="140" width="320" height="260" as="geometry" />
        </mxCell>
        <mxCell id="I_z2C57ImOtiOZ5cPh4z-7" style="edgeStyle=orthogonalEdgeStyle;rounded=0;orthogonalLoop=1;jettySize=auto;html=1;entryX=0;entryY=0.5;entryDx=0;entryDy=0;" edge="1" parent="1" source="I_z2C57ImOtiOZ5cPh4z-1" target="I_z2C57ImOtiOZ5cPh4z-6">
          <mxGeometry relative="1" as="geometry" />
        </mxCell>
        <mxCell id="I_z2C57ImOtiOZ5cPh4z-14" style="edgeStyle=orthogonalEdgeStyle;rounded=0;orthogonalLoop=1;jettySize=auto;html=1;entryX=0;entryY=0.5;entryDx=0;entryDy=0;" edge="1" parent="1" source="I_z2C57ImOtiOZ5cPh4z-1" target="I_z2C57ImOtiOZ5cPh4z-9">
          <mxGeometry relative="1" as="geometry" />
        </mxCell>
        <mxCell id="I_z2C57ImOtiOZ5cPh4z-1" value="NETSALES/ NETSMS" style="rounded=1;whiteSpace=wrap;html=1;" vertex="1" parent="1">
          <mxGeometry x="60" y="30" width="120" height="60" as="geometry" />
        </mxCell>
        <mxCell id="I_z2C57ImOtiOZ5cPh4z-6" value="API Busca Endereço / Viabilidade Técnica" style="rounded=1;whiteSpace=wrap;html=1;" vertex="1" parent="1">
          <mxGeometry x="260" y="30" width="120" height="60" as="geometry" />
        </mxCell>
        <mxCell id="I_z2C57ImOtiOZ5cPh4z-15" style="edgeStyle=orthogonalEdgeStyle;rounded=0;orthogonalLoop=1;jettySize=auto;html=1;entryX=0;entryY=0.5;entryDx=0;entryDy=0;" edge="1" parent="1" source="I_z2C57ImOtiOZ5cPh4z-9" target="I_z2C57ImOtiOZ5cPh4z-13">
          <mxGeometry relative="1" as="geometry" />
        </mxCell>
        <mxCell id="I_z2C57ImOtiOZ5cPh4z-9" value="SOLIC" style="swimlane;fontStyle=0;childLayout=stackLayout;horizontal=1;startSize=30;horizontalStack=0;resizeParent=1;resizeParentMax=0;resizeLast=0;collapsible=1;marginBottom=0;whiteSpace=wrap;html=1;fillColor=#fff2cc;strokeColor=#d6b656;" vertex="1" parent="1">
          <mxGeometry x="220" y="210" width="100" height="50" as="geometry" />
        </mxCell>
        <mxCell id="I_z2C57ImOtiOZ5cPh4z-13" value="Trigger Criação OS" style="rounded=1;whiteSpace=wrap;html=1;fillColor=#fff2cc;strokeColor=#d6b656;" vertex="1" parent="1">
          <mxGeometry x="290" y="320" width="120" height="60" as="geometry" />
        </mxCell>
        <mxCell id="I_z2C57ImOtiOZ5cPh4z-18" style="edgeStyle=orthogonalEdgeStyle;rounded=0;orthogonalLoop=1;jettySize=auto;html=1;endArrow=none;endFill=0;dashed=1;dashPattern=1 2;" edge="1" parent="1" source="I_z2C57ImOtiOZ5cPh4z-17" target="I_z2C57ImOtiOZ5cPh4z-13">
          <mxGeometry relative="1" as="geometry" />
        </mxCell>
        <mxCell id="I_z2C57ImOtiOZ5cPh4z-17" value="&lt;div&gt;NETSMS&amp;nbsp; deverá criar SOLIC de Adesão Ponto Adicional da BL Rural com OS, sem agenda e sem a necessidade de equipamento.&lt;/div&gt;&lt;div&gt;&lt;ul&gt;&lt;li&gt;Ponto 1 =&amp;gt; Acesso (Fake)&lt;/li&gt;&lt;li&gt;Ponto 2 =&amp;gt; Ponto de BL sem Equipamento&lt;/li&gt;&lt;/ul&gt;&lt;/div&gt;" style="text;html=1;align=left;verticalAlign=middle;whiteSpace=wrap;rounded=0;fillColor=#fff2cc;strokeColor=#d6b656;shadow=0;sketch=1;curveFitting=1;jiggle=2;" vertex="1" parent="1">
          <mxGeometry x="530" y="295" width="280" height="110" as="geometry" />
        </mxCell>
      </root>
    </mxGraphModel>
  </diagram>
</mxfile>
